<svg width="14" height="10" viewBox="0 0 14 10" fill="none" xmlns="http://www.w3.org/2000/svg">
<path d="M0.75 9.31818C0.335786 9.31818 0 8.98239 0 8.56818C0 8.15396 0.335786 7.81818 0.75 7.81818H13.25C13.6642 7.81818 14 8.15396 14 8.56818C14 8.98239 13.6642 9.31818 13.25 9.31818H0.75ZM0.75 5.56818C0.335786 5.56818 0 5.23239 0 4.81818C0 4.40396 0.335786 4.06818 0.75 4.06818H13.25C13.6642 4.06818 14 4.40396 14 4.81818C14 5.23239 13.6642 5.56818 13.25 5.56818H0.75ZM0.75 1.81818C0.335786 1.81818 0 1.48239 0 1.06818C0 0.653963 0.335786 0.318176 0.75 0.318176H13.25C13.6642 0.318176 14 0.653963 14 1.06818C14 1.48239 13.6642 1.81818 13.25 1.81818H0.75Z" fill="#474847"/>
</svg>
